<svg width="212" height="20" viewBox="0 0 212 20" fill="none" xmlns="http://www.w3.org/2000/svg">
<g clip-path="url(#clip0_444_111)">
<mask id="mask0_444_111" style="mask-type:luminance" maskUnits="userSpaceOnUse" x="0" y="0" width="212" height="20">
<path d="M212 0H0V20H212V0Z" fill="white"/>
</mask>
<g mask="url(#mask0_444_111)">
<path d="M81.8409 15.4133V4.58655H91.5967V0.383301H76.4245V19.6166H91.9549V15.4133H81.8409ZM8.51012 10.3027C9.63491 10.3027 10.4814 10.06 11.0517 9.57464C11.6244 9.08921 11.9096 8.39737 11.9096 7.50137C11.9096 6.60537 11.6244 5.90899 11.0517 5.41222C10.4814 4.91772 9.63263 4.67047 8.51012 4.67047H5.47111V10.3027H8.51012ZM8.84094 0.385569C10.5909 0.385569 12.1104 0.673649 13.4017 1.24981C14.6908 1.82597 15.6855 2.65165 16.386 3.72231C17.0864 4.79297 17.4355 6.0519 17.4355 7.4991C17.4355 8.94631 17.0864 10.2007 16.386 11.2622C15.6855 12.3238 14.6908 13.145 13.4017 13.7211C12.1127 14.2973 10.5932 14.5854 8.84094 14.5854H5.47111V19.612H0V0.385569H8.84322H8.84094ZM32.0373 7.50137C32.0373 6.6031 31.7521 5.90899 31.1794 5.41222C30.609 4.91772 29.7603 4.67047 28.6378 4.67047H25.5988V10.3027H28.6378C29.7626 10.3027 30.609 10.06 31.1794 9.57464C31.7521 9.08921 32.0373 8.39737 32.0373 7.50137ZM28.583 14.5082H25.5988V19.6188H20.1277V0.385569H28.9709C30.7208 0.385569 32.2403 0.673649 33.5317 1.24981C34.8207 1.82597 35.8155 2.65165 36.5159 3.72231C37.2164 4.79297 37.5654 6.0519 37.5654 7.4991C37.5654 8.94631 37.2392 10.1031 36.5844 11.1398C35.9296 12.1741 34.9964 12.9839 33.7804 13.5714L37.9533 19.6166H32.0943L28.5853 14.506L28.583 14.5082ZM40.6158 0.385569H46.087V19.6166H40.6158V0.385569ZM67.4855 19.6166L67.4307 9.42493L62.457 17.7225H60.0248L55.0785 9.6994V19.6166H50.0226V0.385569H54.5263L61.3253 11.4845L67.9577 0.385569H72.4615L72.5162 19.6166H67.4877H67.4855ZM83.9741 10.001L86.7712 13.2425L89.5684 10.001L86.7712 6.75962L83.9741 10.001Z" fill="#42556A"/>
<path d="M201.247 15.495C202.224 15.495 203.109 15.2659 203.901 14.8076C204.693 14.3494 205.32 13.7052 205.781 12.8705C206.242 12.038 206.472 11.0808 206.472 9.9988C206.472 8.9168 206.242 7.96182 205.781 7.12707C205.32 6.29459 204.695 5.64811 203.901 5.1899C203.109 4.7317 202.224 4.5026 201.247 4.5026C200.271 4.5026 199.386 4.7317 198.594 5.1899C197.802 5.64811 197.175 6.29459 196.714 7.12707C196.253 7.95955 196.023 8.9168 196.023 9.9988C196.023 11.0808 196.253 12.0357 196.714 12.8705C197.175 13.703 197.802 14.3494 198.594 14.8076C199.386 15.2659 200.271 15.495 201.247 15.495ZM201.247 19.9999C199.203 19.9999 197.364 19.5689 195.735 18.7092C194.104 17.8495 192.824 16.6586 191.893 15.1388C190.962 13.619 190.497 11.9064 190.497 10.001C190.497 8.09565 190.962 6.38305 191.893 4.86326C192.824 3.34347 194.104 2.15259 195.735 1.29289C197.367 0.430914 199.203 0.00219727 201.247 0.00219727C203.292 0.00219727 205.131 0.433183 206.76 1.29289C208.391 2.15259 209.671 3.34347 210.602 4.86326C211.533 6.38305 211.998 8.09565 211.998 10.001C211.998 11.9064 211.533 13.619 210.602 15.1388C209.671 16.6586 208.391 17.8495 206.76 18.7092C205.128 19.5712 203.292 19.9999 201.247 19.9999ZM187.588 0.385548V19.6165H183.084L174.547 9.3682V19.6165H169.185V0.385548H173.689L182.226 10.6339V0.385548H187.588ZM159.778 0.385548H165.249V19.6165H159.778V0.385548ZM148.658 20.0022C147.093 20.0022 145.573 19.8094 144.1 19.426C142.626 19.0404 141.428 18.5277 140.506 17.8881L142.302 13.8776C143.166 14.447 144.17 14.9029 145.313 15.2522C146.456 15.5993 147.579 15.774 148.683 15.774C150.784 15.774 151.834 15.2522 151.834 14.2088C151.834 13.6599 151.535 13.2516 150.935 12.9862C150.335 12.7208 149.375 12.4418 148.047 12.1491C146.591 11.8384 145.375 11.5027 144.398 11.1465C143.422 10.7904 142.585 10.2165 141.884 9.42944C141.184 8.64233 140.835 7.57847 140.835 6.24242C140.835 5.06968 141.156 4.01263 141.802 3.069C142.448 2.12537 143.411 1.37908 144.691 0.830143C145.97 0.281204 147.54 0.00673396 149.402 0.00673396C150.673 0.00673396 151.925 0.14964 153.16 0.433183C154.394 0.716726 155.48 1.1341 156.42 1.68304L154.734 5.7207C152.893 4.7317 151.106 4.2372 149.372 4.2372C148.286 4.2372 147.492 4.39825 146.995 4.71809C146.497 5.03792 146.249 5.4553 146.249 5.96795C146.249 6.48059 146.543 6.86621 147.134 7.12253C147.723 7.37886 148.672 7.64425 149.979 7.91872C151.453 8.22949 152.674 8.5652 153.641 8.92133C154.608 9.27746 155.446 9.84682 156.155 10.6248C156.865 11.4029 157.218 12.4599 157.218 13.7982C157.218 14.9528 156.897 15.9963 156.251 16.9308C155.605 17.8654 154.638 18.6117 153.349 19.1697C152.06 19.7277 150.492 20.0067 148.651 20.0067L148.658 20.0022ZM131.46 11.8701L128.973 5.71616L126.486 11.8701H131.46ZM133.062 15.8806H124.882L123.363 19.6165H117.78L126.322 0.385548H131.711L140.278 19.6165H134.586L133.066 15.8806H133.062ZM109.646 20.0022C107.62 20.0022 105.802 19.5757 104.189 18.7251C102.578 17.8722 101.309 16.6881 100.39 15.166C99.4687 13.6463 99.0078 11.9246 99.0078 10.001C99.0078 8.07751 99.4687 6.35583 100.39 4.83604C101.312 3.31625 102.578 2.12991 104.189 1.27928C105.802 0.426378 107.62 0.00219727 109.646 0.00219727C111.414 0.00219727 113.009 0.312961 114.426 0.936756C115.845 1.56055 117.025 2.45655 117.962 3.62928L114.481 6.76187C113.228 5.26022 111.709 4.5094 109.922 4.5094C108.873 4.5094 107.937 4.7385 107.118 5.19671C106.299 5.65491 105.663 6.30139 105.211 7.13388C104.759 7.96636 104.533 8.9236 104.533 10.0056C104.533 11.0876 104.759 12.0425 105.211 12.8773C105.663 13.7098 106.297 14.3562 107.118 14.8145C107.937 15.2727 108.873 15.5018 109.922 15.5018C111.709 15.5018 113.228 14.7509 114.481 13.2493L117.962 16.3819C117.022 17.5546 115.843 18.4506 114.426 19.0744C113.007 19.6982 111.414 20.009 109.646 20.009V20.0022Z" fill="#B7A075"/>
</g>
</g>
<defs>
<clipPath id="clip0_444_111">
<rect width="212" height="20" fill="white"/>
</clipPath>
</defs>
</svg>
